<mxfile host="app.diagrams.net" modified="2023-11-03T16:34:12.186Z" agent="Mozilla/5.0 (Windows NT 10.0; Win64; x64) AppleWebKit/537.36 (KHTML, like Gecko) Chrome/118.0.0.0 Safari/537.36" etag="vpG4G5yr-RKegFvISYFC" version="22.0.8" type="github">
  <diagram name="Page-1" id="2YBvvXClWsGukQMizWep">
    <mxGraphModel dx="996" dy="1490" grid="1" gridSize="10" guides="1" tooltips="1" connect="1" arrows="1" fold="1" page="1" pageScale="1" pageWidth="850" pageHeight="1100" math="0" shadow="0">
      <root>
        <mxCell id="0" />
        <mxCell id="1" parent="0" />
        <mxCell id="jHpHiBaA_FM-cvzHEOoG-22" value="" style="rounded=0;whiteSpace=wrap;html=1;fontFamily=Helvetica;fontSize=11;fontColor=default;" parent="1" vertex="1">
          <mxGeometry x="10" y="-250" width="1550" height="680" as="geometry" />
        </mxCell>
        <mxCell id="aM9ryv3xv72pqoxQDRHE-1" value="ApiGateway" style="shape=umlLifeline;perimeter=lifelinePerimeter;whiteSpace=wrap;html=1;container=0;dropTarget=0;collapsible=0;recursiveResize=0;outlineConnect=0;portConstraint=eastwest;newEdgeStyle={&quot;edgeStyle&quot;:&quot;elbowEdgeStyle&quot;,&quot;elbow&quot;:&quot;vertical&quot;,&quot;curved&quot;:0,&quot;rounded&quot;:0};" parent="1" vertex="1">
          <mxGeometry x="40" y="40" width="100" height="340" as="geometry" />
        </mxCell>
        <mxCell id="aM9ryv3xv72pqoxQDRHE-2" value="" style="html=1;points=[];perimeter=orthogonalPerimeter;outlineConnect=0;targetShapes=umlLifeline;portConstraint=eastwest;newEdgeStyle={&quot;edgeStyle&quot;:&quot;elbowEdgeStyle&quot;,&quot;elbow&quot;:&quot;vertical&quot;,&quot;curved&quot;:0,&quot;rounded&quot;:0};" parent="aM9ryv3xv72pqoxQDRHE-1" vertex="1">
          <mxGeometry x="45" y="70" width="10" height="240" as="geometry" />
        </mxCell>
        <mxCell id="aM9ryv3xv72pqoxQDRHE-5" value="Security-Profile-service:Controller" style="shape=umlLifeline;perimeter=lifelinePerimeter;whiteSpace=wrap;html=1;container=0;dropTarget=0;collapsible=0;recursiveResize=0;outlineConnect=0;portConstraint=eastwest;newEdgeStyle={&quot;edgeStyle&quot;:&quot;elbowEdgeStyle&quot;,&quot;elbow&quot;:&quot;vertical&quot;,&quot;curved&quot;:0,&quot;rounded&quot;:0};" parent="1" vertex="1">
          <mxGeometry x="360" y="40" width="100" height="340" as="geometry" />
        </mxCell>
        <mxCell id="aM9ryv3xv72pqoxQDRHE-6" value="" style="html=1;points=[];perimeter=orthogonalPerimeter;outlineConnect=0;targetShapes=umlLifeline;portConstraint=eastwest;newEdgeStyle={&quot;edgeStyle&quot;:&quot;elbowEdgeStyle&quot;,&quot;elbow&quot;:&quot;vertical&quot;,&quot;curved&quot;:0,&quot;rounded&quot;:0};" parent="aM9ryv3xv72pqoxQDRHE-5" vertex="1">
          <mxGeometry x="45" y="80" width="10" height="230" as="geometry" />
        </mxCell>
        <mxCell id="aM9ryv3xv72pqoxQDRHE-7" value="Endpoint - &lt;br&gt;Consulta de informacion del usuario (token atómico)" style="html=1;verticalAlign=bottom;endArrow=block;edgeStyle=elbowEdgeStyle;elbow=vertical;curved=0;rounded=0;" parent="1" source="aM9ryv3xv72pqoxQDRHE-2" target="aM9ryv3xv72pqoxQDRHE-6" edge="1">
          <mxGeometry relative="1" as="geometry">
            <mxPoint x="195" y="130" as="sourcePoint" />
            <Array as="points">
              <mxPoint x="180" y="120" />
            </Array>
            <mxPoint as="offset" />
          </mxGeometry>
        </mxCell>
        <mxCell id="aM9ryv3xv72pqoxQDRHE-8" value="return: userDataResponse" style="html=1;verticalAlign=bottom;endArrow=open;dashed=1;endSize=8;edgeStyle=elbowEdgeStyle;elbow=vertical;curved=0;rounded=0;" parent="1" source="aM9ryv3xv72pqoxQDRHE-6" target="aM9ryv3xv72pqoxQDRHE-2" edge="1">
          <mxGeometry relative="1" as="geometry">
            <mxPoint x="95" y="280" as="targetPoint" />
            <Array as="points">
              <mxPoint x="310" y="340" />
              <mxPoint x="190" y="280" />
            </Array>
          </mxGeometry>
        </mxCell>
        <mxCell id="rwBjtFIrtzMqV9OnUiDG-1" value="Request" style="swimlane;whiteSpace=wrap;html=1;startSize=30;" parent="1" vertex="1">
          <mxGeometry x="140" y="-210" width="220" height="90" as="geometry" />
        </mxCell>
        <mxCell id="rwBjtFIrtzMqV9OnUiDG-15" value="" style="shape=module;jettyWidth=13;jettyHeight=4;" parent="rwBjtFIrtzMqV9OnUiDG-1" vertex="1">
          <mxGeometry x="1" width="29" height="20" relative="1" as="geometry">
            <mxPoint x="-34" y="5" as="offset" />
          </mxGeometry>
        </mxCell>
        <mxCell id="rwBjtFIrtzMqV9OnUiDG-27" value="+ tokenType: String" style="text;strokeColor=none;fillColor=none;align=left;verticalAlign=top;spacingLeft=4;spacingRight=4;overflow=hidden;rotatable=0;points=[[0,0.5],[1,0.5]];portConstraint=eastwest;whiteSpace=wrap;html=1;" parent="rwBjtFIrtzMqV9OnUiDG-1" vertex="1">
          <mxGeometry y="30" width="200" height="26" as="geometry" />
        </mxCell>
        <mxCell id="rwBjtFIrtzMqV9OnUiDG-33" value="" style="endArrow=classic;startArrow=classic;html=1;rounded=0;" parent="1" target="rwBjtFIrtzMqV9OnUiDG-1" edge="1">
          <mxGeometry width="50" height="50" relative="1" as="geometry">
            <mxPoint x="250" y="90" as="sourcePoint" />
            <mxPoint x="275" y="-50" as="targetPoint" />
          </mxGeometry>
        </mxCell>
        <mxCell id="rwBjtFIrtzMqV9OnUiDG-34" value="Security-Profile-service:Service" style="shape=umlLifeline;perimeter=lifelinePerimeter;whiteSpace=wrap;html=1;container=0;dropTarget=0;collapsible=0;recursiveResize=0;outlineConnect=0;portConstraint=eastwest;newEdgeStyle={&quot;edgeStyle&quot;:&quot;elbowEdgeStyle&quot;,&quot;elbow&quot;:&quot;vertical&quot;,&quot;curved&quot;:0,&quot;rounded&quot;:0};" parent="1" vertex="1">
          <mxGeometry x="710" y="40" width="100" height="340" as="geometry" />
        </mxCell>
        <mxCell id="rwBjtFIrtzMqV9OnUiDG-35" value="" style="html=1;points=[];perimeter=orthogonalPerimeter;outlineConnect=0;targetShapes=umlLifeline;portConstraint=eastwest;newEdgeStyle={&quot;edgeStyle&quot;:&quot;elbowEdgeStyle&quot;,&quot;elbow&quot;:&quot;vertical&quot;,&quot;curved&quot;:0,&quot;rounded&quot;:0};" parent="rwBjtFIrtzMqV9OnUiDG-34" vertex="1">
          <mxGeometry x="45" y="80" width="10" height="230" as="geometry" />
        </mxCell>
        <mxCell id="jHpHiBaA_FM-cvzHEOoG-4" value="" style="endArrow=none;html=1;rounded=0;labelBackgroundColor=default;strokeColor=default;align=center;verticalAlign=middle;fontFamily=Helvetica;fontSize=11;fontColor=default;curved=0;elbow=vertical;" parent="rwBjtFIrtzMqV9OnUiDG-34" target="rwBjtFIrtzMqV9OnUiDG-35" edge="1">
          <mxGeometry width="50" height="50" relative="1" as="geometry">
            <mxPoint x="55" y="170" as="sourcePoint" />
            <mxPoint x="55" y="200" as="targetPoint" />
            <Array as="points">
              <mxPoint x="100" y="170" />
              <mxPoint x="100" y="180" />
              <mxPoint x="80" y="180" />
            </Array>
          </mxGeometry>
        </mxCell>
        <mxCell id="rwBjtFIrtzMqV9OnUiDG-36" value="getUserInformation" style="html=1;verticalAlign=bottom;endArrow=block;edgeStyle=elbowEdgeStyle;elbow=vertical;curved=0;rounded=0;" parent="1" source="aM9ryv3xv72pqoxQDRHE-6" target="rwBjtFIrtzMqV9OnUiDG-35" edge="1">
          <mxGeometry relative="1" as="geometry">
            <mxPoint x="425" y="130" as="sourcePoint" />
            <Array as="points">
              <mxPoint x="660" y="120" />
              <mxPoint x="430" y="150" />
            </Array>
            <mxPoint x="735" y="130" as="targetPoint" />
            <mxPoint as="offset" />
          </mxGeometry>
        </mxCell>
        <mxCell id="rwBjtFIrtzMqV9OnUiDG-37" value="Security-Profile-service:Controller" style="shape=umlLifeline;perimeter=lifelinePerimeter;whiteSpace=wrap;html=1;container=0;dropTarget=0;collapsible=0;recursiveResize=0;outlineConnect=0;portConstraint=eastwest;newEdgeStyle={&quot;edgeStyle&quot;:&quot;elbowEdgeStyle&quot;,&quot;elbow&quot;:&quot;vertical&quot;,&quot;curved&quot;:0,&quot;rounded&quot;:0};" parent="1" vertex="1">
          <mxGeometry x="1010" y="40" width="100" height="340" as="geometry" />
        </mxCell>
        <mxCell id="rwBjtFIrtzMqV9OnUiDG-38" value="" style="html=1;points=[];perimeter=orthogonalPerimeter;outlineConnect=0;targetShapes=umlLifeline;portConstraint=eastwest;newEdgeStyle={&quot;edgeStyle&quot;:&quot;elbowEdgeStyle&quot;,&quot;elbow&quot;:&quot;vertical&quot;,&quot;curved&quot;:0,&quot;rounded&quot;:0};" parent="rwBjtFIrtzMqV9OnUiDG-37" vertex="1">
          <mxGeometry x="45" y="110" width="10" height="40" as="geometry" />
        </mxCell>
        <mxCell id="rwBjtFIrtzMqV9OnUiDG-39" value="Endpoint&lt;br&gt;Consulta estado del registro de actualización de datos" style="html=1;verticalAlign=bottom;endArrow=block;edgeStyle=elbowEdgeStyle;elbow=vertical;curved=0;rounded=0;" parent="1" source="rwBjtFIrtzMqV9OnUiDG-35" target="rwBjtFIrtzMqV9OnUiDG-38" edge="1">
          <mxGeometry relative="1" as="geometry">
            <mxPoint x="820" y="160" as="sourcePoint" />
            <Array as="points">
              <mxPoint x="950" y="150" />
              <mxPoint x="935" y="160" />
              <mxPoint x="705" y="190" />
            </Array>
            <mxPoint x="1030" y="160" as="targetPoint" />
            <mxPoint as="offset" />
          </mxGeometry>
        </mxCell>
        <mxCell id="rwBjtFIrtzMqV9OnUiDG-40" value="return: StatusResponse" style="html=1;verticalAlign=bottom;endArrow=open;dashed=1;endSize=8;edgeStyle=elbowEdgeStyle;elbow=vertical;curved=0;rounded=0;" parent="1" source="rwBjtFIrtzMqV9OnUiDG-38" target="rwBjtFIrtzMqV9OnUiDG-35" edge="1">
          <mxGeometry relative="1" as="geometry">
            <mxPoint x="800" y="189.83" as="targetPoint" />
            <Array as="points">
              <mxPoint x="990" y="180" />
              <mxPoint x="1020" y="170" />
              <mxPoint x="990" y="180" />
              <mxPoint x="895" y="189.83" />
            </Array>
            <mxPoint x="1020" y="189.83" as="sourcePoint" />
          </mxGeometry>
        </mxCell>
        <mxCell id="jHpHiBaA_FM-cvzHEOoG-5" value="" style="html=1;verticalAlign=bottom;endArrow=block;edgeStyle=elbowEdgeStyle;elbow=vertical;curved=0;rounded=0;" parent="1" edge="1">
          <mxGeometry relative="1" as="geometry">
            <mxPoint x="780" y="220" as="sourcePoint" />
            <Array as="points">
              <mxPoint x="810" y="220" />
              <mxPoint x="800" y="250" />
            </Array>
            <mxPoint x="764.9999999999999" y="220" as="targetPoint" />
            <mxPoint as="offset" />
          </mxGeometry>
        </mxCell>
        <mxCell id="jHpHiBaA_FM-cvzHEOoG-6" value="Status: P" style="text;html=1;align=center;verticalAlign=middle;resizable=0;points=[];autosize=1;strokeColor=none;fillColor=none;fontSize=11;fontFamily=Helvetica;fontColor=default;" parent="1" vertex="1">
          <mxGeometry x="760" y="190" width="70" height="30" as="geometry" />
        </mxCell>
        <mxCell id="jHpHiBaA_FM-cvzHEOoG-8" value="Tabla temporal: AS400" style="shape=umlLifeline;perimeter=lifelinePerimeter;whiteSpace=wrap;html=1;container=0;dropTarget=0;collapsible=0;recursiveResize=0;outlineConnect=0;portConstraint=eastwest;newEdgeStyle={&quot;edgeStyle&quot;:&quot;elbowEdgeStyle&quot;,&quot;elbow&quot;:&quot;vertical&quot;,&quot;curved&quot;:0,&quot;rounded&quot;:0};" parent="1" vertex="1">
          <mxGeometry x="1210" y="40" width="100" height="340" as="geometry" />
        </mxCell>
        <mxCell id="jHpHiBaA_FM-cvzHEOoG-9" value="" style="html=1;points=[];perimeter=orthogonalPerimeter;outlineConnect=0;targetShapes=umlLifeline;portConstraint=eastwest;newEdgeStyle={&quot;edgeStyle&quot;:&quot;elbowEdgeStyle&quot;,&quot;elbow&quot;:&quot;vertical&quot;,&quot;curved&quot;:0,&quot;rounded&quot;:0};" parent="jHpHiBaA_FM-cvzHEOoG-8" vertex="1">
          <mxGeometry x="45" y="189" width="10" height="41" as="geometry" />
        </mxCell>
        <mxCell id="jHpHiBaA_FM-cvzHEOoG-10" value="trx: getUserData" style="html=1;verticalAlign=bottom;endArrow=block;edgeStyle=elbowEdgeStyle;elbow=vertical;curved=0;rounded=0;" parent="1" target="jHpHiBaA_FM-cvzHEOoG-9" edge="1">
          <mxGeometry relative="1" as="geometry">
            <mxPoint x="765" y="231" as="sourcePoint" />
            <Array as="points">
              <mxPoint x="1240" y="231" />
              <mxPoint x="965" y="241" />
              <mxPoint x="950" y="251" />
              <mxPoint x="720" y="281" />
            </Array>
            <mxPoint x="1320" y="231" as="targetPoint" />
            <mxPoint as="offset" />
          </mxGeometry>
        </mxCell>
        <mxCell id="jHpHiBaA_FM-cvzHEOoG-11" value="return: userDataResponse" style="html=1;verticalAlign=bottom;endArrow=open;dashed=1;endSize=8;edgeStyle=elbowEdgeStyle;elbow=vertical;curved=0;rounded=0;" parent="1" source="jHpHiBaA_FM-cvzHEOoG-9" target="rwBjtFIrtzMqV9OnUiDG-35" edge="1">
          <mxGeometry relative="1" as="geometry">
            <mxPoint x="1010" y="270" as="targetPoint" />
            <Array as="points">
              <mxPoint x="1070" y="260" />
              <mxPoint x="1235" y="270" />
              <mxPoint x="1265" y="260" />
              <mxPoint x="1235" y="270" />
              <mxPoint x="1140" y="279.83000000000004" />
            </Array>
            <mxPoint x="1300" y="270" as="sourcePoint" />
          </mxGeometry>
        </mxCell>
        <mxCell id="jHpHiBaA_FM-cvzHEOoG-12" value="" style="endArrow=none;html=1;rounded=0;labelBackgroundColor=default;strokeColor=default;align=center;verticalAlign=middle;fontFamily=Helvetica;fontSize=11;fontColor=default;curved=0;elbow=vertical;" parent="1" edge="1">
          <mxGeometry width="50" height="50" relative="1" as="geometry">
            <mxPoint x="765" y="288" as="sourcePoint" />
            <mxPoint x="765" y="298" as="targetPoint" />
            <Array as="points">
              <mxPoint x="810" y="288" />
              <mxPoint x="810" y="298" />
              <mxPoint x="790" y="298" />
            </Array>
          </mxGeometry>
        </mxCell>
        <mxCell id="jHpHiBaA_FM-cvzHEOoG-13" value="" style="html=1;verticalAlign=bottom;endArrow=block;edgeStyle=elbowEdgeStyle;elbow=vertical;curved=0;rounded=0;" parent="1" edge="1">
          <mxGeometry relative="1" as="geometry">
            <mxPoint x="780" y="298" as="sourcePoint" />
            <Array as="points">
              <mxPoint x="810" y="298" />
              <mxPoint x="800" y="328" />
            </Array>
            <mxPoint x="764.9999999999999" y="298" as="targetPoint" />
            <mxPoint as="offset" />
          </mxGeometry>
        </mxCell>
        <mxCell id="jHpHiBaA_FM-cvzHEOoG-14" value="Status: C" style="text;html=1;align=center;verticalAlign=middle;resizable=0;points=[];autosize=1;strokeColor=none;fillColor=none;fontSize=11;fontFamily=Helvetica;fontColor=default;" parent="1" vertex="1">
          <mxGeometry x="758" y="266" width="70" height="30" as="geometry" />
        </mxCell>
        <mxCell id="jHpHiBaA_FM-cvzHEOoG-16" value="AS:400" style="shape=umlLifeline;perimeter=lifelinePerimeter;whiteSpace=wrap;html=1;container=0;dropTarget=0;collapsible=0;recursiveResize=0;outlineConnect=0;portConstraint=eastwest;newEdgeStyle={&quot;edgeStyle&quot;:&quot;elbowEdgeStyle&quot;,&quot;elbow&quot;:&quot;vertical&quot;,&quot;curved&quot;:0,&quot;rounded&quot;:0};" parent="1" vertex="1">
          <mxGeometry x="1390" y="40" width="100" height="340" as="geometry" />
        </mxCell>
        <mxCell id="jHpHiBaA_FM-cvzHEOoG-17" value="" style="html=1;points=[];perimeter=orthogonalPerimeter;outlineConnect=0;targetShapes=umlLifeline;portConstraint=eastwest;newEdgeStyle={&quot;edgeStyle&quot;:&quot;elbowEdgeStyle&quot;,&quot;elbow&quot;:&quot;vertical&quot;,&quot;curved&quot;:0,&quot;rounded&quot;:0};" parent="jHpHiBaA_FM-cvzHEOoG-16" vertex="1">
          <mxGeometry x="45" y="269" width="10" height="41" as="geometry" />
        </mxCell>
        <mxCell id="jHpHiBaA_FM-cvzHEOoG-18" value="trx: getUserData" style="html=1;verticalAlign=bottom;endArrow=block;edgeStyle=elbowEdgeStyle;elbow=vertical;curved=0;rounded=0;" parent="1" source="rwBjtFIrtzMqV9OnUiDG-35" target="jHpHiBaA_FM-cvzHEOoG-17" edge="1">
          <mxGeometry relative="1" as="geometry">
            <mxPoint x="780" y="320" as="sourcePoint" />
            <Array as="points">
              <mxPoint x="880" y="310" />
              <mxPoint x="1255" y="320" />
              <mxPoint x="980" y="330" />
              <mxPoint x="965" y="340" />
              <mxPoint x="735" y="370" />
            </Array>
            <mxPoint x="1270" y="320" as="targetPoint" />
            <mxPoint as="offset" />
          </mxGeometry>
        </mxCell>
        <mxCell id="jHpHiBaA_FM-cvzHEOoG-19" value="return: userDataResponse" style="html=1;verticalAlign=bottom;endArrow=open;dashed=1;endSize=8;edgeStyle=elbowEdgeStyle;elbow=vertical;curved=0;rounded=0;" parent="1" source="jHpHiBaA_FM-cvzHEOoG-17" target="rwBjtFIrtzMqV9OnUiDG-35" edge="1">
          <mxGeometry x="-0.0004" relative="1" as="geometry">
            <mxPoint x="940" y="339.58" as="targetPoint" />
            <Array as="points">
              <mxPoint x="1245" y="339.58" />
              <mxPoint x="1410" y="349.58" />
              <mxPoint x="1440" y="339.58" />
              <mxPoint x="1410" y="349.58" />
              <mxPoint x="1315" y="359.41" />
            </Array>
            <mxPoint x="1430" y="339.58" as="sourcePoint" />
            <mxPoint as="offset" />
          </mxGeometry>
        </mxCell>
        <mxCell id="jHpHiBaA_FM-cvzHEOoG-20" value="return: userDataResponse" style="html=1;verticalAlign=bottom;endArrow=open;dashed=1;endSize=8;edgeStyle=elbowEdgeStyle;elbow=vertical;curved=0;rounded=0;" parent="1" source="rwBjtFIrtzMqV9OnUiDG-35" target="aM9ryv3xv72pqoxQDRHE-6" edge="1">
          <mxGeometry relative="1" as="geometry">
            <mxPoint x="440" y="340" as="targetPoint" />
            <Array as="points">
              <mxPoint x="525" y="340" />
            </Array>
            <mxPoint x="740" y="340" as="sourcePoint" />
          </mxGeometry>
        </mxCell>
      </root>
    </mxGraphModel>
  </diagram>
</mxfile>
